<?xml version="1.0" standalone="no"?>
<!DOCTYPE svg PUBLIC "-//W3C//DTD SVG 20010904//EN"
 "http://www.w3.org/TR/2001/REC-SVG-20010904/DTD/svg10.dtd">
<svg version="1.0" xmlns="http://www.w3.org/2000/svg"
 width="107.000000pt" height="60.000000pt" viewBox="0 0 107.000000 60.000000"
 preserveAspectRatio="xMidYMid meet">

<g transform="translate(0.000000,60.000000) scale(0.100000,-0.100000)"
fill="#000000" stroke="none">
<path d="M480 530 c0 -33 -3 -60 -7 -60 -4 0 -27 19 -50 42 l-43 42 -40 -39
c-22 -21 -40 -44 -40 -50 0 -6 16 -26 35 -45 19 -19 35 -38 35 -42 0 -4 -27
-8 -60 -8 l-60 0 0 -65 0 -64 63 -3 62 -3 -42 -46 -42 -46 44 -43 45 -44 43
42 c23 23 46 42 51 42 4 0 7 -12 6 -27 -1 -16 -2 -45 -1 -66 l1 -38 63 3 62 3
3 64 3 64 44 -43 45 -44 42 39 c24 22 45 41 47 43 3 1 -14 22 -37 45 -23 24
-42 46 -42 50 0 4 27 7 60 7 l61 0 -3 63 -3 62 -63 5 -63 5 45 45 46 44 -42
43 c-23 24 -45 43 -49 43 -4 0 -26 -19 -48 -42 l-41 -43 0 63 0 62 -65 0 -65
0 0 -60z"/>
</g>
</svg>
